<svg width="403" height="197" viewBox="0 0 403 197" fill="none" xmlns="http://www.w3.org/2000/svg">
<path d="M347 185L271 65L260 80.5L329 185H347Z" fill="black" stroke="black"/>
<path d="M185 184.5H161.5L279 3L401.5 184.5H374.5L279 37L185 184.5Z" fill="black" stroke="black"/>
<path d="M225.5 0H275L154.5 186.5C123.7 204.5 109 194 105.5 186.5L225.5 0Z" fill="#B63B3B"/>
<path d="M171.5 0H221L100.5 186.5C69.7 204.5 55 194 51.5 186.5L171.5 0Z" fill="white"/>
<path d="M120.5 0H170L49.5 186.5C18.7 204.5 4 194 0.5 186.5L120.5 0Z" fill="#408B4A"/>
</svg>
